<svg xmlns="http://www.w3.org/2000/svg" width="13.202" height="13.202" viewBox="0 0 24 24">
  <path id="linkedin" d="M20.447 20.452h-3.554v-5.569c0-1.328-.027-3.037-1.852-3.037-1.854 0-2.137 1.446-2.137 2.939v5.667H9.349V9h3.414v1.561h.048c.476-.9 1.637-1.852 3.369-1.852 3.6 0 4.268 2.369 4.268 5.451v6.291zM5.337 7.433c-1.144 0-2.07-.928-2.07-2.07 0-1.145.926-2.071 2.07-2.071s2.07.926 2.07 2.071c0 1.142-.926 2.07-2.07 2.07zm1.776 13.019H3.563V9h3.55v11.452h-.001zM22.225 0H1.771C.792 0 0 .773 0 1.727v20.546C0 23.228.792 24 1.771 24h20.451C23.207 24 24 23.228 24 22.273V1.727C24 .773 23.207 0 22.225 0z" fill="#fff"/>
</svg>
