<svg xmlns="http://www.w3.org/2000/svg" width="13.202" height="13.202" viewBox="0 0 24 24">
<path id="wifi" d="M12 20c-.553 0-1 .447-1 1s.447 1 1 1 1-.447 1-1-.447-1-1-1zm3.834-4.596a.999.999 0 0 0-1.416 0C13.692 16.13 12.874 17 12 17c-.874 0-1.692-.87-2.418-1.596a.999.999 0 1 0-1.416 1.416C9.875 17.87 10.937 19 12 19c1.063 0 2.125-1.13 2.834-1.596a.999.999 0 0 0 0-1.416zm4.244-4.244a.999.999 0 0 0-1.416 0C16.53 13.083 14.347 15 12 15s-4.53-1.917-5.662-3.84a.999.999 0 1 0-1.416 1.416C6.583 14.313 9.063 16 12 16s5.417-1.687 7.078-3.668a.999.999 0 0 0 0-1.416zm4.244-4.244a.999.999 0 0 0-1.416 0C20.97 9.037 16.627 12 12 12S3.03 9.037 2.338 7.916a.999.999 0 0 0-1.416 1.416C3.969 11.291 7.876 14 12 14s8.031-2.709 11.078-4.668a.999.999 0 0 0 0-1.416z" fill="#fff"/>
</svg>
